<svg fill="none" height="514" viewBox="0 0 512 514" width="512" xmlns="http://www.w3.org/2000/svg"><g clip-rule="evenodd" fill-rule="evenodd"><path d="m0 513.2h512v-512h-512z" fill="#70d521"/><path d="m464 512.6c9 .5 18.2.7 27.6.7 6.8 0 13.5-.1 20.2-.4v-511.9h-115.4c51.7 152.9 86.7 349.4 67.6 511.6z" fill="#2a5e36"/><path d="m396.4 1c51.7 152.9 86.7 349.4 67.6 511.6-80-4.1-141.9-25.7-147.3-52.2v-459.4z" fill="#297d64"/><path d="m146.7 363.6-16.4 149.6h45.1l-7-150z" fill="#fff"/><path d="m464.8 512.6c-80-4.1-141.9-25.7-147.3-52.2-.2-1.2-.4-2.5-.4-3.7v-37.4c-20.5 16.2-32.1 43.6-30.8 59.3.9 12.2 8.6 24 21.5 34.6h171.7c-4.9-.1-9.8-.3-14.7-.6z" fill="#6e9b80"/><path d="m309.7 1.2c-1.4 3.5 2.3 11.8 3.2 15.8.8 3.9-2.4 28-6.7 46.2-3.8 16 8 67.6 13.4 79.6 6.9 15.3 15.1 17.3 19.6.4s23.6-49.9 8.3-79.6c-15.3-29.6-7.7-33.4-1.8-41.6 8.4-11.6 12.7-21.600001 1.1-21.000001z" fill="#6e9b80"/><path d="m361.3 1.2h-11.7c7.8 1.2 3.6 10.4-4 20.9-5.9 8.2-13.5 12 1.8 41.6s-3.8 62.7-8.3 79.6c-3.7 14-10 15-15.9 6.2 6.9 14.8 19 10.5 23.4-6.2 4.5-16.9 23.6-49.9 8.3-79.6s-7.7-33.4-1.8-41.6c5.6-7.8 9.5-16.2 8.2-20.9z" fill="#224521"/><path d="m325.4 225.8c9.5-7.7 19.5-13.7 29.2-18-10.1-20.6-26.6-34.4-36-23.6-9.1 10.5-25.2 26.5-31.3 37 .2 11 3.2 34.2 4.8 46.1 6.2-14 17.7-28.8 33.3-41.5z" fill="#6e9b80"/><path d="m334.6 299.4c16.2 10.8 30.6-27.7 28.5-61.2-.6-10.4-3.9-21.1-8.5-30.5-9.7 4.3-19.7 10.3-29.2 18-15.6 12.7-27.1 27.5-33.3 41.5.6 4.6 1.1 7.5 1.1 7.5s30.7 17.6 41.4 24.7z" fill="#224521"/><path d="m302.4 247c.9 14.9-2.6 27.5-7.9 28-5.3.6-10.3-11.1-11.3-26s.4-31 7.9-28c5.1 2 10.4 11.1 11.3 26z" fill="#297d64"/><path d="m284 231.8c-76.2 11.4-126.1 64.9-139.4 131.8-.8 4 1.4 8 4.5 8.4 1.7.2 3.7.2 6 0 31.3-114.6 113.4-122.4 137.9-125.4-.9-7.9-3.8-15.1-9-14.8z" fill="#297d64"/><g fill="#2a5e36"><path d="m290.6 265.3c2.3-3.1 3.2-11.1 2.4-18.6-24.5 3-106.6 10.8-137.8 125.4 4.1-.4 9.1-1.6 15-4.2 2.5-1.1 4.4-3.8 5.1-7.1 11.4-54.3 68.4-96.7 115.3-95.5z"/><path d="m203.7 265.5c.8 1.1.5 3.1-1 4.2s-3.4 1.1-4.2 0z"/></g></g></svg>