<svg fill="none" height="32" viewBox="0 0 32 32" width="32" xmlns="http://www.w3.org/2000/svg"><g clip-rule="evenodd" fill-rule="evenodd"><path d="m0 32h32v-32h-32z" fill="#70d521"/><path d="m17.7 15.6.4 16.4h-8.90005l2.40005-15.2c.2.1.3.2.5.2.4 0 .9.1 1.5 0 1-.1 2.2-.4 3.7-1 .1-.1.3-.2.4-.4z" fill="#fff"/><path d="m13.6001 17c2-7.3 4.8-12.8 8-17h-4.6c-2.9 4.5-5 9.5-6.1 15-.2 1 .3 2 1.1 2.1.5 0 1 0 1.6-.1z" fill="#297d64"/><path d="m18.5 14.2c1.1-5.4 4.1-10.3 8-14.2h-4.9c-3.2 4.2-6 9.7-8 17 1-.1 2.2-.4 3.7-1 .5-.3 1-1 1.2-1.8z" fill="#2a5e36"/></g></svg>