<svg xmlns="http://www.w3.org/2000/svg" width="32" height="32" fill="none"><g fill-rule="evenodd" clip-rule="evenodd"><path fill="#70d521" d="M0 32h32V0H0z"/><path fill="#fff" d="m17.7 15.6.4 16.4H9.2l2.4-15.2c.2.1.3.2.5.2.4 0 .9.1 1.5 0 1-.1 2.2-.4 3.7-1 .1-.1.3-.2.4-.4"/><path fill="#297d64" d="M13.6 17c2-7.3 4.8-12.8 8-17H17c-2.9 4.5-5 9.5-6.1 15-.2 1 .3 2 1.1 2.1.5 0 1 0 1.6-.1"/><path fill="#2a5e36" d="M18.5 14.2c1.1-5.4 4.1-10.3 8-14.2h-4.9c-3.2 4.2-6 9.7-8 17 1-.1 2.2-.4 3.7-1 .5-.3 1-1 1.2-1.8"/></g></svg>